<svg xmlns="http://www.w3.org/2000/svg" xmlns:xlink="http://www.w3.org/1999/xlink"
    xmlns:lucid="lucid" width="780" height="560">
    <g transform="translate(-240 -240)" lucid:page-tab-id="0_0">
        <path d="M340 560c0 22.1-17.9 40-40 40s-40-17.9-40-40 17.9-40 40-40 40 17.9 40 40z"
            stroke="#f3f4f6" fill="#22d3ee" />
        <use xlink:href="#a"
            transform="matrix(1,0,0,1,265,525) translate(22.654320987654323 39.65277777777778)" />
        <path d="M520 440c0 22.1-17.9 40-40 40s-40-17.9-40-40 17.9-40 40-40 40 17.9 40 40z"
            stroke="#f3f4f6" fill="#22d3ee" />
        <use xlink:href="#b"
            transform="matrix(1,0,0,1,445,405) translate(22.654320987654323 39.65277777777778)" />
        <path d="M520 680c0 22.1-17.9 40-40 40s-40-17.9-40-40 17.9-40 40-40 40 17.9 40 40z"
            stroke="#f3f4f6" fill="#22d3ee" />
        <use xlink:href="#c"
            transform="matrix(1,0,0,1,445,645) translate(23.271604938271604 39.65277777777778)" />
        <path d="M341 560h43a6 6 0 0 0 6-6V446a6 6 0 0 1 6-6h27.12" stroke="#f3f4f6" fill="none" />
        <path d="M341 560.5h-.53l.03-.5-.02-.5h.53z" stroke="#f3f4f6" stroke-width=".05"
            fill="#f3f4f6" />
        <path d="M437.88 440l-14.26 4.63v-9.26z" stroke="#f3f4f6" fill="#f3f4f6" />
        <path d="M341 560h43a6 6 0 0 1 6 6v108a6 6 0 0 0 6 6h27.12" stroke="#f3f4f6" fill="none" />
        <path d="M341 560.5h-.53l.03-.5-.02-.5h.53z" stroke="#f3f4f6" stroke-width=".05"
            fill="#f3f4f6" />
        <path d="M437.88 680l-14.26 4.63v-9.26z" stroke="#f3f4f6" fill="#f3f4f6" />
        <path d="M680 300c0 22.1-17.9 40-40 40s-40-17.9-40-40 17.9-40 40-40 40 17.9 40 40z"
            stroke="#f3f4f6" fill="#22d3ee" />
        <use xlink:href="#d"
            transform="matrix(1,0,0,1,605,265) translate(14.660493827160494 39.65277777777778)" />
        <path d="M521 440h33a6 6 0 0 0 6-6V306a6 6 0 0 1 6-6h17.12" stroke="#f3f4f6" fill="none" />
        <path d="M521 440.5h-.53l.03-.5-.02-.5h.53z" stroke="#f3f4f6" stroke-width=".05"
            fill="#f3f4f6" />
        <path d="M597.88 300l-14.26 4.63v-9.26z" stroke="#f3f4f6" fill="#f3f4f6" />
        <path d="M680 440c0 22.1-17.9 40-40 40s-40-17.9-40-40 17.9-40 40-40 40 17.9 40 40z"
            stroke="#f3f4f6" fill="#22d3ee" />
        <use xlink:href="#e"
            transform="matrix(1,0,0,1,605,405) translate(15.277777777777779 39.65277777777778)" />
        <path d="M521 440h62.12" stroke="#f3f4f6" fill="none" />
        <path d="M521 440.5h-.53l.03-.5-.02-.5h.53z" stroke="#f3f4f6" stroke-width=".05"
            fill="#f3f4f6" />
        <path d="M597.88 440l-14.26 4.63v-9.26z" stroke="#f3f4f6" fill="#f3f4f6" />
        <path d="M680 680c0 22.1-17.9 40-40 40s-40-17.9-40-40 17.9-40 40-40 40 17.9 40 40z"
            stroke="#f3f4f6" fill="#22d3ee" />
        <use xlink:href="#f"
            transform="matrix(1,0,0,1,605,645) translate(22.654320987654323 39.65277777777778)" />
        <path d="M521 680h62.12" stroke="#f3f4f6" fill="none" />
        <path d="M521 680.5h-.53l.03-.5-.02-.5h.53z" stroke="#f3f4f6" stroke-width=".05"
            fill="#f3f4f6" />
        <path d="M597.88 680l-14.26 4.63v-9.26z" stroke="#f3f4f6" fill="#f3f4f6" />
        <path d="M840 680c0 22.1-17.9 40-40 40s-40-17.9-40-40 17.9-40 40-40 40 17.9 40 40z"
            stroke="#f3f4f6" fill="#22d3ee" />
        <use xlink:href="#g"
            transform="matrix(1,0,0,1,765,645) translate(22.654320987654323 39.65277777777778)" />
        <path d="M681 680h62.12" stroke="#f3f4f6" fill="none" />
        <path d="M681 680.5h-.53l.03-.5-.02-.5h.53z" stroke="#f3f4f6" stroke-width=".05"
            fill="#f3f4f6" />
        <path d="M757.88 680l-14.26 4.63v-9.26z" stroke="#f3f4f6" fill="#f3f4f6" />
        <path d="M1000 600c0 22.1-17.9 40-40 40s-40-17.9-40-40 17.9-40 40-40 40 17.9 40 40z"
            stroke="#f3f4f6" fill="#22d3ee" />
        <use xlink:href="#b"
            transform="matrix(1,0,0,1,925,565) translate(22.654320987654323 39.65277777777778)" />
        <path d="M841 680h33a6 6 0 0 0 6-6v-68a6 6 0 0 1 6-6h17.12" stroke="#f3f4f6" fill="none" />
        <path d="M841 680.5h-.53l.03-.5-.02-.5h.53z" stroke="#f3f4f6" stroke-width=".05"
            fill="#f3f4f6" />
        <path d="M917.88 600l-14.26 4.63v-9.26z" stroke="#f3f4f6" fill="#f3f4f6" />
        <path d="M1000 740c0 22.1-17.9 40-40 40s-40-17.9-40-40 17.9-40 40-40 40 17.9 40 40z"
            stroke="#f3f4f6" fill="#22d3ee" />
        <use xlink:href="#e"
            transform="matrix(1,0,0,1,925,705) translate(15.277777777777779 39.65277777777778)" />
        <path d="M841 680h33a6 6 0 0 1 6 6v48a6 6 0 0 0 6 6h17.12" stroke="#f3f4f6" fill="none" />
        <path d="M841 680.5h-.53l.03-.5-.02-.5h.53z" stroke="#f3f4f6" stroke-width=".05"
            fill="#f3f4f6" />
        <path d="M917.88 740l-14.26 4.63v-9.26z" stroke="#f3f4f6" fill="#f3f4f6" />
        <path d="M840 440c0 22.1-17.9 40-40 40s-40-17.9-40-40 17.9-40 40-40 40 17.9 40 40z"
            stroke="#f3f4f6" fill="#22d3ee" />
        <use xlink:href="#h"
            transform="matrix(1,0,0,1,765,405) translate(15.8641975308642 39.65277777777778)" />
        <path d="M681 440h62.12" stroke="#f3f4f6" fill="none" />
        <path d="M681 440.5h-.53l.03-.5-.02-.5h.53z" stroke="#f3f4f6" stroke-width=".05"
            fill="#f3f4f6" />
        <path d="M757.88 440l-14.26 4.63v-9.26z" stroke="#f3f4f6" fill="#f3f4f6" />
        <defs>
            <path fill="#ecfeff"
                d="M100-194c63 0 86 42 84 106H49c0 40 14 67 53 68 26 1 43-12 49-29l28 8c-11 28-37 45-77 45C44 4 14-33 15-96c1-61 26-98 85-98zm52 81c6-60-76-77-97-28-3 7-6 17-6 28h103"
                id="i" />
            <path fill="#ecfeff"
                d="M155-56V0h-30v-56H8v-25l114-167h33v167h35v25h-35zm-30-156c-27 46-58 90-88 131h88v-131"
                id="j" />
            <g id="a">
                <use transform="matrix(0.06172839506172839,0,0,0.06172839506172839,0,0)"
                    xlink:href="#i" />
                <use
                    transform="matrix(0.06172839506172839,0,0,0.06172839506172839,12.345679012345679,0)"
                    xlink:href="#j" />
            </g>
            <path fill="#ecfeff"
                d="M54-142c48-35 137-8 131 61C196 18 31 33 14-55l32-4c7 23 22 37 52 37 35-1 51-22 54-58 4-55-73-65-99-34H22l8-134h141v27H59"
                id="k" />
            <g id="b">
                <use transform="matrix(0.06172839506172839,0,0,0.06172839506172839,0,0)"
                    xlink:href="#i" />
                <use
                    transform="matrix(0.06172839506172839,0,0,0.06172839506172839,12.345679012345679,0)"
                    xlink:href="#k" />
            </g>
            <path fill="#ecfeff"
                d="M96-169c-40 0-48 33-48 73s9 75 48 75c24 0 41-14 43-38l32 2c-6 37-31 61-74 61-59 0-76-41-82-99-10-93 101-131 147-64 4 7 5 14 7 22l-32 3c-4-21-16-35-41-35"
                id="l" />
            <path fill="#ecfeff"
                d="M110-160c48 1 74 30 74 79 0 53-28 85-80 85-65 0-83-55-86-122-5-90 50-162 133-122 14 7 22 21 27 39l-31 6c-5-40-67-38-82-6-9 19-15 44-15 74 11-20 30-34 60-33zm-7 138c34 0 49-23 49-58s-16-56-50-56c-29 0-50 16-49 49 1 36 15 65 50 65"
                id="m" />
            <g id="c">
                <use transform="matrix(0.06172839506172839,0,0,0.06172839506172839,0,0)"
                    xlink:href="#l" />
                <use
                    transform="matrix(0.06172839506172839,0,0,0.06172839506172839,11.11111111111111,0)"
                    xlink:href="#m" />
            </g>
            <path fill="#ecfeff" d="M190 0L58-211 59 0H30v-248h39L202-35l-2-213h31V0h-41" id="n" />
            <path fill="#ecfeff"
                d="M177-190C167-65 218 103 67 71c-23-6-38-20-44-43l32-5c15 47 100 32 89-28v-30C133-14 115 1 83 1 29 1 15-40 15-95c0-56 16-97 71-98 29-1 48 16 59 35 1-10 0-23 2-32h30zM94-22c36 0 50-32 50-73 0-42-14-75-50-75-39 0-46 34-46 75s6 73 46 73"
                id="o" />
            <path fill="#ecfeff"
                d="M126-127c33 6 58 20 58 59 0 88-139 92-164 29-3-8-5-16-6-25l32-3c6 27 21 44 54 44 32 0 52-15 52-46 0-38-36-46-79-43v-28c39 1 72-4 72-42 0-27-17-43-46-43-28 0-47 15-49 41l-32-3c6-42 35-63 81-64 48-1 79 21 79 65 0 36-21 52-52 59"
                id="p" />
            <g id="d">
                <use transform="matrix(0.06172839506172839,0,0,0.06172839506172839,0,0)"
                    xlink:href="#n" />
                <use
                    transform="matrix(0.06172839506172839,0,0,0.06172839506172839,15.987654320987653,0)"
                    xlink:href="#o" />
                <use
                    transform="matrix(0.06172839506172839,0,0,0.06172839506172839,28.333333333333332,0)"
                    xlink:href="#p" />
            </g>
            <g id="e">
                <use transform="matrix(0.06172839506172839,0,0,0.06172839506172839,0,0)"
                    xlink:href="#n" />
                <use
                    transform="matrix(0.06172839506172839,0,0,0.06172839506172839,15.987654320987653,0)"
                    xlink:href="#l" />
                <use
                    transform="matrix(0.06172839506172839,0,0,0.06172839506172839,27.098765432098766,0)"
                    xlink:href="#p" />
            </g>
            <path fill="#ecfeff"
                d="M85-194c31 0 48 13 60 33l-1-100h32l1 261h-30c-2-10 0-23-3-31C134-8 116 4 85 4 32 4 16-35 15-94c0-66 23-100 70-100zm9 24c-40 0-46 34-46 75 0 40 6 74 45 74 42 0 51-32 51-76 0-42-9-74-50-73"
                id="q" />
            <g id="f">
                <use transform="matrix(0.06172839506172839,0,0,0.06172839506172839,0,0)"
                    xlink:href="#q" />
                <use
                    transform="matrix(0.06172839506172839,0,0,0.06172839506172839,12.345679012345679,0)"
                    xlink:href="#j" />
            </g>
            <g id="g">
                <use transform="matrix(0.06172839506172839,0,0,0.06172839506172839,0,0)"
                    xlink:href="#q" />
                <use
                    transform="matrix(0.06172839506172839,0,0,0.06172839506172839,12.345679012345679,0)"
                    xlink:href="#k" />
            </g>
            <path fill="#ecfeff"
                d="M160-131c35 5 61 23 61 61C221 17 115-2 30 0v-248c76 3 177-17 177 60 0 33-19 50-47 57zm-97-11c50-1 110 9 110-42 0-47-63-36-110-37v79zm0 115c55-2 124 14 124-45 0-56-70-42-124-44v89"
                id="r" />
            <g id="h">
                <use transform="matrix(0.06172839506172839,0,0,0.06172839506172839,0,0)"
                    xlink:href="#r" />
                <use
                    transform="matrix(0.06172839506172839,0,0,0.06172839506172839,14.814814814814813,0)"
                    xlink:href="#l" />
                <use
                    transform="matrix(0.06172839506172839,0,0,0.06172839506172839,25.925925925925924,0)"
                    xlink:href="#k" />
            </g>
        </defs>
    </g>
</svg>